<?xml version="1.0" encoding="UTF-8"?>
<svg version="1.1" xmlns="http://www.w3.org/2000/svg" width="446" height="446">
<path d="M0,0 L3,0 L4,2 L4,21 L0,39 L-6,48 L-12,53 L-17,58 L-24,64 L-37,72 L-61,80 L-95,86 L-112,91 L-120,95 L-124,97 L-126,102 L-129,111 L-123,103 L-113,96 L-105,93 L-68,86 L-36,81 L-23,77 L-14,73 L-12,73 L-10,69 L-4,62 L-2,62 L-2,73 L-4,83 L-8,91 L-15,101 L-23,108 L-36,116 L-48,120 L-73,123 L-89,125 L-102,130 L-110,137 L-113,140 L-113,142 L-110,139 L-108,139 L-108,137 L-100,132 L-94,130 L-79,128 L-62,127 L-51,125 L-42,122 L-41,123 L-42,133 L-45,138 L-52,146 L-66,153 L-74,155 L-91,157 L-99,160 L-104,164 L-104,165 L-94,160 L-90,159 L-68,157 L-67,161 L-70,169 L-76,174 L-92,178 L-98,181 L-104,188 L-109,201 L-116,211 L-120,211 L-122,211 L-118,191 L-118,170 L-122,193 L-125,204 L-130,214 L-138,225 L-149,236 L-151,236 L-152,239 L-160,246 L-165,250 L-173,261 L-176,268 L-177,273 L-177,289 L-183,295 L-194,300 L-198,300 L-199,291 L-199,271 L-196,255 L-192,248 L-183,238 L-173,229 L-162,220 L-152,210 L-148,204 L-143,194 L-141,183 L-141,155 L-145,143 L-153,129 L-163,115 L-168,104 L-169,93 L-166,83 L-160,74 L-152,66 L-136,58 L-117,52 L-89,46 L-75,43 L-49,36 L-26,25 L-18,19 L-13,16 L-4,8 Z M-116,146 Z M-107,168 Z M-115,200 L-114,202 Z M-116,203 Z M-117,205 Z M-118,207 Z " fill="#92E6A1" transform="translate(438,15)"/>
<path d="M0,0 L4,1 L8,9 L11,11 L11,13 L15,15 L15,17 L20,19 L31,26 L51,35 L83,44 L112,50 L136,56 L153,64 L163,73 L169,81 L172,89 L172,100 L168,111 L159,125 L157,128 L155,128 L153,134 L146,148 L144,159 L144,180 L146,192 L150,202 L156,211 L163,217 L167,221 L175,228 L185,237 L193,244 L199,253 L202,264 L203,272 L203,286 L202,302 L186,294 L181,289 L180,283 L180,268 L174,256 L167,248 L160,242 L160,240 L156,238 L149,231 L143,226 L135,215 L130,206 L126,195 L123,177 L122,167 L122,190 L125,205 L126,211 L120,211 L117,208 L108,188 L105,183 L98,178 L81,174 L76,171 L71,163 L71,156 L94,158 L105,162 L109,165 L100,158 L89,155 L71,153 L61,149 L53,143 L46,134 L44,127 L44,122 L51,123 L61,126 L88,128 L99,130 L111,136 L118,144 L115,137 L106,129 L91,124 L67,122 L46,118 L34,112 L25,106 L25,104 L21,102 L15,95 L9,85 L6,77 L5,61 L8,61 L15,70 L19,73 L34,79 L50,82 L93,89 L110,93 L124,100 L131,108 L132,110 L130,101 L125,95 L115,90 L99,85 L69,80 L54,76 L41,71 L27,63 L16,54 L7,43 L2,31 L-1,17 L-1,2 Z M119,146 Z M120,148 Z M110,167 Z M111,169 Z M116,192 L117,196 Z M117,198 Z M118,200 L119,202 Z M119,203 Z M120,205 Z " fill="#2395F7" transform="translate(4,16)"/>
<path d="M0,0 L5,0 L13,11 L15,16 L16,12 L23,1 L30,0 L39,4 L36,8 L41,6 L47,6 L52,11 L54,15 L54,20 L54,22 L57,26 L56,38 L61,44 L61,57 L59,65 L59,77 L53,85 L50,86 L50,70 L44,64 L42,55 L39,60 L42,61 L42,65 L46,67 L49,70 L50,79 L47,89 L42,96 L39,98 L36,98 L36,95 L31,102 L24,106 L20,106 L21,97 L12,97 L7,96 L9,98 L10,106 L3,105 L-4,99 L-5,97 L-6,100 L-10,98 L-16,91 L-19,86 L-20,82 L-20,72 L-21,78 L-20,85 L-22,87 L-28,79 L-30,75 L-30,68 L-28,63 L-31,62 L-32,46 L-29,41 L-27,39 L-27,26 L-23,21 L-24,16 L-21,9 L-16,6 L-9,7 L-3,11 L-8,6 L-7,3 Z M33,9 Z M32,10 Z M-1,13 Z M30,13 Z M0,14 Z M1,15 L2,17 L4,16 Z M-15,16 L-11,18 L-3,19 L-6,16 Z M25,16 Z M35,16 L31,19 L40,18 L44,16 Z M5,17 L5,19 L12,20 L11,18 Z M23,17 L18,19 L20,20 L25,18 Z M49,18 Z M-2,19 Z M12,20 Z M17,20 Z M13,21 L15,25 L16,22 Z M16,21 Z M-14,24 L-16,27 L-14,34 L-12,30 L-11,28 L-13,28 Z M42,24 L41,30 L43,33 L44,31 L43,28 L45,28 L45,25 Z M45,29 L46,33 L49,33 Z M-18,31 L-18,34 L-16,31 Z M43,34 Z M49,34 Z M-15,35 L-14,37 Z M50,35 Z M44,37 Z M-16,38 Z M45,39 L45,47 L48,47 L54,59 L56,60 L55,56 L50,46 L49,42 Z M-17,40 L-20,43 L-19,47 L-16,46 L-16,40 Z M-16,46 L-15,49 Z M-21,48 Z M44,48 L45,50 Z M-15,49 L-14,52 Z M-22,50 Z M-23,51 L-26,57 L-25,59 L-22,54 Z M43,51 L44,53 Z M-14,52 L-15,64 L-16,66 L-12,64 L-12,61 L-9,61 L-8,67 L-11,76 L-10,80 L-8,78 L-8,74 L-5,74 L-7,61 L-13,52 Z M-27,59 L-26,61 Z M56,60 L57,62 Z M-28,61 Z M37,61 L35,65 L35,74 L37,75 L38,79 L40,79 L39,72 L38,64 Z M7,62 Z M57,62 Z M8,63 L13,67 L13,77 L16,76 L16,66 L21,64 L19,63 L14,64 Z M-17,66 Z M-18,67 Z M-19,69 Z M-5,75 Z M-4,77 L-2,81 L1,90 L4,93 L3,81 Z M11,77 Z M17,77 Z M9,78 Z M19,78 Z M31,78 L25,80 L27,81 L27,90 L29,88 L31,81 L33,78 Z M5,79 Z M22,79 Z M4,80 Z M-10,88 Z M-9,90 Z M26,91 Z M-8,92 L-7,94 Z M25,92 Z M37,92 Z M4,93 Z M24,93 Z M-7,94 L-6,96 Z M5,94 Z M23,94 L22,96 L24,96 Z " fill="#80DBDB" transform="translate(208,84)"/>
<path d="M0,0 L14,0 L26,4 L35,10 L43,17 L51,11 L61,4 L67,2 L81,2 L91,7 L96,15 L98,23 L97,33 L93,43 L85,49 L74,52 L66,52 L53,49 L44,44 L36,37 L32,39 L19,48 L12,50 L-2,50 L-10,47 L-16,40 L-19,32 L-19,19 L-15,9 L-8,3 Z M68,11 L59,14 L50,21 L51,25 L57,32 L67,37 L78,38 L84,35 L87,28 L87,21 L85,16 L82,13 L75,11 Z M3,14 L-6,17 L-10,25 L-8,34 L-3,39 L1,41 L14,41 L23,36 L30,31 L25,26 L16,18 L10,15 Z " fill="#A1F0F9" transform="translate(183,187)"/>
<path d="M0,0 L9,4 L19,7 L20,10 L26,11 L28,8 L44,8 L51,10 L51,14 L54,14 L55,11 L58,12 L60,16 L63,15 L63,18 L67,19 L67,25 L69,25 L68,29 L65,32 L65,40 L68,40 L70,47 L74,51 L75,54 L75,62 L77,62 L80,80 L82,89 L76,89 L73,86 L64,66 L61,61 L54,56 L37,52 L32,49 L27,41 L27,34 L50,36 L61,40 L65,43 L56,36 L45,33 L27,31 L17,27 L9,21 L2,12 L0,5 Z M66,45 Z M67,47 Z M72,70 L73,74 Z M73,76 Z M74,78 L75,80 Z M75,81 Z M76,83 Z " fill="#176FF2" transform="translate(48,138)"/>
<path d="M0,0 L7,1 L8,3 L8,10 L4,14 L-8,18 L-9,36 L-21,36 L-21,41 L-15,42 L-15,63 L-18,62 L-18,60 L-22,60 L-22,76 L-24,80 L-25,76 L-35,76 L-38,73 L-39,18 L-52,13 L-53,8 L-51,6 L-18,2 Z " fill="#5BCDE8" transform="translate(246,355)"/>
<path d="M0,0 L4,4 L7,9 L14,15 L18,19 L26,26 L36,35 L44,42 L50,51 L53,62 L54,70 L54,84 L53,100 L37,92 L32,87 L31,81 L31,61 L29,58 L28,51 L29,49 L26,50 L25,46 L27,42 L26,37 L25,33 L22,27 L22,25 L18,24 L17,21 L10,15 L5,10 L0,4 Z " fill="#7AC09E" transform="translate(153,218)"/>
<path d="M0,0 L11,0 L14,5 L14,12 L12,15 L-1,18 L-19,20 L-44,24 L-48,22 L-49,20 L-49,12 L-46,7 L-39,5 Z " fill="#74C8A7" transform="translate(241,319)"/>
<path d="M0,0 L14,0 L18,2 L-2,3 L-9,9 L-11,9 L-11,11 L-13,11 L-13,21 L-11,21 L-7,16 L-2,13 L9,13 L15,15 L24,21 L32,28 L39,36 L51,45 L65,49 L77,49 L82,47 L87,47 L85,49 L74,52 L66,52 L53,49 L44,44 L36,37 L32,39 L19,48 L12,50 L-2,50 L-10,47 L-16,40 L-19,32 L-19,19 L-15,9 L-8,3 Z M3,14 L-6,17 L-10,25 L-8,34 L-3,39 L1,41 L14,41 L23,36 L30,31 L25,26 L16,18 L10,15 Z " fill="#4AADD9" transform="translate(183,187)"/>
<path d="M0,0 L11,0 L12,1 L12,11 L8,14 L-8,17 L-38,20 L-47,21 L-50,17 L-49,10 L-44,7 Z " fill="#79C99A" transform="translate(242,339)"/>
<path d="M0,0 L5,1 L16,7 L25,15 L33,9 L43,2 L49,0 L63,0 L73,5 L77,11 L77,13 L74,14 L74,11 L74,9 L71,9 L72,18 L72,28 L70,28 L69,32 L64,36 L61,37 L48,37 L46,35 L39,32 L27,21 L20,14 L11,7 L0,1 Z M50,9 L41,12 L32,19 L33,23 L39,30 L49,35 L60,36 L66,33 L69,26 L69,19 L67,14 L64,11 L57,9 Z " fill="#78E0EC" transform="translate(201,189)"/>
<path d="M0,0 L7,1 L7,2 L-14,4 L-23,6 L-25,8 L-27,7 L-27,9 L-30,9 L-28,20 L-34,20 L-35,19 L-36,21 L-35,58 L-32,71 L-24,73 L-24,75 L-22,76 L-24,80 L-25,76 L-35,76 L-38,73 L-39,18 L-52,13 L-53,8 L-51,6 L-18,2 Z " fill="#56AAA7" transform="translate(246,355)"/>
<path d="M0,0 L12,0 L13,1 L13,8 L9,12 L-3,16 L-4,34 L-6,33 L-7,28 L-7,19 L-13,17 L-21,11 L-22,5 L-13,2 Z " fill="#93E5AC" transform="translate(241,357)"/>
<path d="M0,0 L4,1 L8,9 L11,11 L11,13 L15,15 L15,17 L20,19 L31,26 L51,35 L83,44 L112,50 L136,56 L145,60 L145,61 L139,61 L126,56 L102,50 L83,47 L72,45 L64,41 L51,38 L27,27 L15,19 L4,8 L0,2 Z " fill="#98B4C5" transform="translate(4,16)"/>
<path d="M0,0 L3,0 L10,9 L14,12 L29,18 L45,21 L88,28 L105,32 L119,39 L126,47 L128,50 L128,56 L126,53 L121,45 L121,43 L117,41 L109,36 L101,34 L87,31 L81,29 L65,28 L52,25 L35,22 L16,17 L7,10 L0,2 Z " fill="#7C9EBA" transform="translate(9,77)"/>
<path d="M0,0 L1,2 L0,6 L0,19 L2,29 L2,41 L4,41 L4,34 L7,24 L8,28 L6,37 L6,51 L6,55 L0,64 L-4,64 L-6,64 L-2,44 L-2,23 L-3,11 L-1,1 Z M1,53 L2,55 Z M0,56 Z M-1,58 Z M-2,60 Z " fill="#3F9273" transform="translate(322,162)"/>
<path d="M0,0 L11,0 L17,2 L26,8 L34,15 L41,23 L53,32 L67,36 L79,36 L84,34 L89,34 L87,36 L76,39 L68,39 L55,36 L46,31 L36,23 L31,17 L23,10 L15,4 L5,2 L-4,4 L-6,9 L-8,12 L-8,6 Z " fill="#49556D" transform="translate(181,200)"/>
<path d="M0,0 L3,3 L5,8 L4,9 L4,18 L2,18 L1,22 L-12,19 L-13,15 L-11,15 L-11,10 L-7,9 L-5,6 L-3,6 L-4,3 L0,2 Z " fill="#8DF6E1" transform="translate(237,140)"/>
<path d="M0,0 L1,0 L2,10 L3,39 L6,52 L14,54 L14,56 L16,57 L14,61 L13,57 L3,57 L0,54 Z " fill="#1686CA" transform="translate(208,374)"/>
<path d="M0,0 L5,1 L16,7 L25,15 L33,9 L37,7 L33,12 L30,15 L28,15 L29,20 L32,19 L35,25 L39,28 L39,30 L43,31 L49,34 L60,35 L65,34 L64,36 L61,37 L48,37 L46,35 L39,32 L27,21 L20,14 L11,7 L0,1 Z " fill="#4F626B" transform="translate(201,189)"/>
<path d="M0,0 L1,3 L-12,15 L-14,19 L-9,20 L-9,27 L-17,29 L-16,23 L-25,23 L-30,26 L-37,27 L-34,24 L-20,17 L-15,13 L-10,10 L-1,2 Z " fill="#CCF73A" transform="translate(435,21)"/>
<path d="M0,0 L7,2 L11,4 L12,6 L12,19 L11,23 L9,23 L9,19 L7,19 L3,11 L0,3 Z " fill="#B6F4F1" transform="translate(257,122)"/>
<path d="M0,0 L8,0 L12,5 L11,15 L8,15 L6,11 L2,10 L3,4 L-1,3 Z " fill="#C6F5EF" transform="translate(252,104)"/>
<path d="M0,0 L3,1 L2,11 L-1,16 L-4,18 L-4,12 L-1,13 L-2,5 L-15,7 L-35,7 L-35,6 L-18,5 L-7,3 Z " fill="#6F9C6A" transform="translate(394,137)"/>
<path d="M0,0 L9,0 L9,4 L2,6 L1,11 L-2,12 L-3,15 L-5,15 L-5,4 L-1,2 Z " fill="#98F4F5" transform="translate(189,103)"/>
<path d="M0,0 L9,0 L12,1 L12,3 L16,5 L19,10 L19,20 L17,20 L16,24 L12,26 L15,18 L15,11 L13,6 L8,3 L0,1 Z " fill="#4F606B" transform="translate(254,197)"/>
<path d="M0,0 L2,0 L2,4 L4,4 L6,35 L6,43 L4,39 L1,10 Z " fill="#0A5DA3" transform="translate(124,162)"/>
<path d="M0,0 L2,0 L2,2 L-2,4 L-4,8 L-2,7 L5,7 L5,8 L-3,10 L-4,13 L-14,13 L-17,15 L-20,14 L-16,11 L-11,9 L-7,6 L-5,6 L-5,3 Z " fill="#729A75" transform="translate(244,92)"/>
<path d="M0,0 L4,4 L3,11 L0,8 L-7,5 L-9,1 Z " fill="#273A3E" transform="translate(212,121)"/>
<path d="M0,0 L10,0 L9,3 L1,7 L-2,10 L-3,4 L-2,2 L0,2 Z " fill="#2A3131" transform="translate(233,122)"/>
<path d="M0,0 L2,1 L3,12 L3,25 L1,22 L0,19 L0,8 L-5,9 L-4,6 L-1,5 Z M1,8 L2,10 Z " fill="#5A9298" transform="translate(192,111)"/>
<path d="M0,0 L2,3 L3,11 L5,16 L8,15 L9,19 L3,19 L0,16 L-1,12 L1,12 L1,6 L-1,6 Z " fill="#0E5EA2" transform="translate(121,208)"/>
<path d="M0,0 L0,3 L-1,7 L-3,7 L-3,11 L4,11 L2,13 L-3,15 L-7,17 L-6,8 Z " fill="#A5D0B4" transform="translate(229,89)"/>
<path d="M0,0 L7,1 L12,4 L10,5 L6,4 L-2,4 L-5,9 L-5,11 L-2,12 L-7,13 L-7,6 L-2,1 Z " fill="#7ED0CB" transform="translate(192,90)"/>
<path d="M0,0 L3,1 L5,8 L1,8 L-1,15 L-3,15 L-3,7 Z " fill="#8DC3C4" transform="translate(254,130)"/>
<path d="M0,0 L1,3 L-12,15 L-18,17 L-19,20 L-23,19 L-15,13 L-10,10 L-1,2 Z " fill="#3C4223" transform="translate(435,21)"/>
<path d="M0,0 L3,0 L3,2 L5,3 L5,6 L1,5 L1,18 L0,16 L-2,15 L-2,6 Z " fill="#378299" transform="translate(200,158)"/>
<path d="M0,0 L4,3 L6,3 L6,5 L4,5 L4,30 L3,30 L2,10 Z " fill="#33907E" transform="translate(295,160)"/>
<path d="M0,0 L2,0 L3,4 L-1,8 L-5,7 L-9,7 L-15,5 L-15,4 L-5,4 L0,3 Z " fill="#6AB6AB" transform="translate(231,142)"/>
<path d="M0,0 L1,0 L0,19 L-2,19 L-3,10 Z " fill="#5DB29E" transform="translate(272,98)"/>
<path d="M0,0 L14,0 L17,2 L1,2 L-4,4 L-7,4 L-8,7 L-12,6 L-6,2 Z " fill="#438793" transform="translate(250,189)"/>
<path d="M0,0 L2,0 L5,6 L5,8 L9,8 L9,10 L11,10 L11,13 L6,11 L1,5 Z " fill="#2673AF" transform="translate(166,222)"/>
<path d="M0,0 L3,0 L5,6 L3,9 L3,4 L-3,7 L-4,9 L-7,8 L-2,4 Z " fill="#3B7B89" transform="translate(196,145)"/>
<path d="M0,0 L2,0 L4,12 L1,14 L-1,10 L-1,5 Z M0,6 Z M1,9 Z " fill="#556F66" transform="translate(251,112)"/>
<path d="M0,0 L2,4 L4,23 L2,22 L0,8 L-1,2 Z " fill="#124F9A" transform="translate(117,185)"/>
<path d="M0,0 L1,4 L0,16 L-1,21 L-4,21 L-4,16 L-2,13 L-2,2 L0,2 Z " fill="#337467" transform="translate(248,161)"/>
<path d="M0,0 L2,0 L2,2 L-5,6 L-12,7 L-9,4 Z " fill="#7D9040" transform="translate(410,41)"/>
<path d="M0,0 L4,0 L4,2 L-3,4 L-11,4 L-8,2 Z " fill="#90BA84" transform="translate(329,65)"/>
<path d="M0,0 L2,0 L1,5 L-4,13 L-6,12 L-3,6 L-1,6 Z " fill="#3D3C37" transform="translate(436,50)"/>
<path d="M0,0 L7,0 L5,4 L2,6 L-2,5 L2,4 L2,2 L0,2 Z " fill="#94D7E2" transform="translate(269,228)"/>
<path d="M0,0 L2,0 L2,2 L5,1 L6,5 L0,5 L-3,1 Z " fill="#062758" transform="translate(124,222)"/>
<path d="M0,0 L6,1 L15,4 L15,6 L5,4 Z " fill="#8D98A9" transform="translate(49,138)"/>
<path d="M0,0 L5,2 L6,8 L7,12 L3,7 L0,2 Z " fill="#5BC2BE" transform="translate(273,124)"/>
<path d="M0,0 L0,3 L-1,7 L-3,7 L-3,11 L-6,11 L-5,7 Z " fill="#6E907E" transform="translate(229,89)"/>
<path d="M0,0 L5,2 L12,6 L14,9 L10,7 L1,2 Z " fill="#B2C7BD" transform="translate(149,77)"/>
<path d="M0,0 L5,1 L12,5 L11,7 L0,1 Z " fill="#629EAB" transform="translate(201,189)"/>
<path d="M0,0 L7,2 L3,5 L-1,5 Z " fill="#339CAF" transform="translate(229,185)"/>
<path d="M0,0 L1,3 L4,4 L5,7 L1,7 L-1,7 Z " fill="#0F371E" transform="translate(317,219)"/>
<path d="M0,0 L4,0 L3,4 L1,4 L-1,7 Z " fill="#4E7670" transform="translate(246,145)"/>
<path d="M0,0 L3,0 L4,3 L1,3 L0,7 L-2,7 Z " fill="#9DA257" transform="translate(438,15)"/>
<path d="M0,0 L1,3 L-3,9 L-5,9 L-3,4 Z " fill="#3F8A79" transform="translate(292,216)"/>
<path d="M0,0 L3,0 L4,4 L-2,5 Z " fill="#458495" transform="translate(189,130)"/>
<path d="M0,0 L2,1 L3,8 L1,8 L1,6 L-1,5 Z " fill="#263040" transform="translate(192,111)"/>
<path d="M0,0 L3,3 L3,7 L0,6 Z " fill="#54789B" transform="translate(199,177)"/>
<path d="M0,0 L3,0 L5,9 L2,5 Z " fill="#3DA9B0" transform="translate(290,151)"/>
<path d="M0,0 L2,0 L2,2 L-1,2 L-2,5 L-6,4 Z " fill="#5C9376" transform="translate(338,147)"/>
<path d="M0,0 L2,3 L-1,3 L-2,6 L-4,4 Z " fill="#376F6B" transform="translate(244,157)"/>
<path d="M0,0 L3,1 L3,3 L-2,6 Z " fill="#6F8F8E" transform="translate(254,130)"/>
<path d="M0,0 L9,1 L7,3 L3,2 Z " fill="#5B7D95" transform="translate(92,105)"/>
<path d="M0,0 L2,0 L2,2 L-1,4 L-5,3 Z " fill="#7AB391" transform="translate(299,74)"/>
<path d="M0,0 L1,3 L4,4 L4,6 L0,5 Z " fill="#0E5879" transform="translate(177,141)"/>
<path d="M0,0 L3,1 L5,6 L0,2 Z " fill="#7BB3B4" transform="translate(252,146)"/>
<path d="M0,0 L2,0 L1,4 L-3,3 Z " fill="#578C89" transform="translate(229,146)"/>
<path d="M0,0 L4,1 L1,3 L-2,2 Z " fill="#839D8C" transform="translate(226,104)"/>
<path d="M0,0 L2,0 L3,3 L0,4 Z " fill="#80938B" transform="translate(222,102)"/>
<path d="M0,0 L3,0 L3,3 L0,2 Z " fill="#3E343A" transform="translate(228,415)"/>
<path d="M0,0 L2,0 L0,4 L-1,1 Z " fill="#596F74" transform="translate(274,228)"/>
<path d="M0,0 L3,1 L1,3 Z " fill="#5CA9A3" transform="translate(250,149)"/>
</svg>
